<svg width="38" height="46" viewBox="0 0 38 46" fill="none" xmlns="http://www.w3.org/2000/svg">
<path d="M27.4171 7.06946H31.4866C32.5659 7.06946 33.601 7.49821 34.3642 8.26139C35.1274 9.02457 35.5561 10.0597 35.5561 11.139V39.6256C35.5561 40.7049 35.1274 41.74 34.3642 42.5031C33.601 43.2663 32.5659 43.6951 31.4866 43.6951H7.06951C5.99021 43.6951 4.95511 43.2663 4.19193 42.5031C3.42875 41.74 3 40.7049 3 39.6256V11.139C3 10.0597 3.42875 9.02457 4.19193 8.26139C4.95511 7.49821 5.99021 7.06946 7.06951 7.06946H11.139" stroke="#01478F" stroke-width="4.06951" stroke-linecap="round" stroke-linejoin="round"/>
<path d="M25.3823 3H13.1738C12.05 3 11.139 3.91099 11.139 5.03476V9.10427C11.139 10.228 12.05 11.139 13.1738 11.139H25.3823C26.5061 11.139 27.4171 10.228 27.4171 9.10427V5.03476C27.4171 3.91099 26.5061 3 25.3823 3Z" stroke="#01478F" stroke-width="4.06951" stroke-linecap="round" stroke-linejoin="round"/>
</svg>
